<svg width="25" height="25" viewBox="0 0 25 25" fill="none" xmlns="http://www.w3.org/2000/svg">
<path d="M23.2037 0H1.79666C0.80439 0 0 0.804378 0 1.79663V23.2034C0 24.1956 0.80439 25 1.79666 25H23.2037C24.196 25 25.0004 24.1956 25.0004 23.2034V1.79663C25.0004 0.804378 24.196 0 23.2037 0Z" fill="#F2BA37"/>
<path d="M4.90277 6.99157C4.18095 6.66491 3.58557 7.04426 3.58557 7.83456V17.0548C3.58523 17.2432 3.62204 17.4298 3.69391 17.604C3.76577 17.7782 3.87128 17.9365 4.00439 18.0698C4.1375 18.2032 4.2956 18.309 4.46965 18.3812C4.64369 18.4534 4.83026 18.4905 5.01868 18.4905H19.9636C20.3439 18.4898 20.7084 18.3382 20.9771 18.0691C21.2458 17.7999 21.3967 17.4351 21.3967 17.0548V7.83456C21.3967 7.04426 20.8119 6.66754 20.0927 6.99684L13.8597 9.83403C13.0192 10.1607 12.0869 10.1607 11.2464 9.83403L4.90277 6.99157Z" fill="black"/>
</svg>
