<svg width="287" height="123" viewBox="0 0 287 123" fill="none" xmlns="http://www.w3.org/2000/svg">
<g clip-path="url(#clip0_110_288)">
<path d="M114.162 0H8.83954C3.9576 0 0 3.95754 0 8.83941V114.161C0 119.042 3.9576 123 8.83954 123H114.162C119.044 123 123.002 119.042 123.002 114.161V8.83941C123.002 3.95754 119.044 0 114.162 0Z" fill="white"/>
<path d="M24.1208 34.3985C20.5694 32.7914 17.6402 34.6578 17.6402 38.5461V83.9096C17.6385 84.8366 17.8196 85.7549 18.1732 86.6118C18.5268 87.4687 19.0459 88.2475 19.7008 88.9036C20.3557 89.5597 21.1335 90.0802 21.9898 90.4354C22.8461 90.7905 23.7641 90.9733 24.6911 90.9733H98.22C100.091 90.9699 101.885 90.2242 103.207 88.8999C104.528 87.5755 105.271 85.7808 105.271 83.9096V38.5461C105.271 34.6578 102.394 32.8043 98.8551 34.4244L68.1889 48.3835C64.0538 49.9908 59.4665 49.9908 55.3314 48.3835L24.1208 34.3985Z" fill="black"/>
<path d="M250.838 123V115.094H241.091V108.224H249.659V100.526H241.091V93.6562H250.683V86.0611H232.783V123H250.838ZM211.19 123H228.571V114.485H219.9V86.0611H211.19V123ZM191.022 123H206.978V114.99H203.089V94.0191H206.978V86.0611H191.022V94.0191H194.911V114.99H191.022V123ZM178.554 109.145H186.512V101.368H178.554V93.9284H187.484V86.074H170.297V123.013H178.554V109.145ZM141.977 111.892L143.416 102.962L143.779 98.3481L144.142 102.962L145.619 111.892H141.977ZM146.747 118.917L147.421 122.974H155.833L147.926 86.0352H139.67L131.893 122.974H140.253L140.914 118.917H146.747Z" fill="black"/>
<path d="M254.117 50.9756H259.665V43.3416H240.223V50.9756H245.757V80.2675H254.169L254.117 50.9756ZM226.212 73.0093C224.566 73.0093 224.06 71.9336 224.06 69.121V54.1899C224.06 51.3126 224.566 50.185 226.212 50.185C227.858 50.185 228.363 51.2089 228.363 54.1899V69.121C228.363 72.0891 227.858 73.0093 226.212 73.0093ZM226.212 80.7859C230.528 80.7859 233.911 79.2954 235.751 76.0681C236.733 74.1127 237.21 71.9429 237.138 69.7561V53.7752C237.138 46.2319 232.68 42.7454 226.212 42.7454C219.744 42.7454 215.286 46.2319 215.286 53.7752V69.782C215.286 77.5586 219.55 80.8119 226.212 80.8119V80.7859ZM196.401 80.2416V63.7292L196.194 60.0872L196.803 62.1869L203.478 80.2416H210.866V43.3156H203.18V60.0483L203.335 63.3793L202.765 61.3315L196.285 43.2768H188.741V80.2027L196.401 80.2416Z" fill="white"/>
<path d="M162.858 80.8638C169.986 80.8638 173.33 77.6883 173.33 71.4282V67.6306C173.385 66.1125 173.058 64.6049 172.378 63.2462C171.699 61.8874 170.689 60.7211 169.442 59.854C168.378 59.0613 167.26 58.3425 166.098 57.7025C163.506 56.2638 161.186 55.188 161.186 53.1402V51.9089C161.186 50.2628 161.639 49.55 162.922 49.55C164.206 49.55 164.672 50.1073 164.672 51.9089V55.3435H172.877V51.3645C172.877 45.6746 169.494 42.6936 162.974 42.6936C156.455 42.6936 152.709 45.5709 152.709 51.9866V53.879C152.652 55.3439 152.96 56.8 153.604 58.1166C154.249 59.4332 155.211 60.5691 156.403 61.4223C157.428 62.2194 158.511 62.9386 159.643 63.5738C162.313 65.0643 164.828 66.3993 164.828 68.7582V71.0653C164.828 72.5039 164.517 73.3723 163.078 73.3723C161.639 73.3723 161.134 72.5039 161.134 71.0653V65.9845H152.463V71.1689C152.463 77.6495 155.172 80.7601 162.832 80.7601L162.858 80.8638ZM133.189 80.2417H149.132V72.2447H145.243V51.2608H149.132V43.3157H133.189V51.2608H137.078V72.2447H133.189V80.2417Z" fill="black"/>
<path d="M271.148 37.4962H279.871V24.1593L287 0.570288H278.433L275.763 11.639L275.607 13.6998L275.452 11.639L272.859 0.570288H264.24L271.213 24.3148L271.148 37.4962ZM249.97 7.59515H251.862C253.612 7.59515 254.117 8.20433 254.117 9.95407V14.6848C254.117 16.1753 253.612 16.7845 251.862 16.7845H249.97V7.59515ZM249.97 24.2112H251.201C253.145 24.2112 253.664 24.7815 253.664 26.8034V34.904C253.607 35.3617 253.64 35.8262 253.762 36.271C253.885 36.7158 254.093 37.1321 254.377 37.4962H262.944C262.618 37.1522 262.368 36.7439 262.21 36.2975C262.051 35.851 261.988 35.3764 262.024 34.904V26.2849C262.024 23.0058 261.402 21.2172 258.991 20.3358C261.207 19.4674 262.283 17.6788 262.283 14.3867V9.66892C262.283 2.95512 259.354 0.596205 252.432 0.596205H241.96V37.4962H249.97V24.2112ZM226.575 30.3158C224.929 30.3158 224.423 29.24 224.423 26.3627V11.4446C224.423 8.56723 224.929 7.43963 226.575 7.43963C228.221 7.43963 228.726 8.46354 228.726 11.4446V26.3497C228.726 29.3308 228.221 30.3028 226.575 30.3028V30.3158ZM226.575 38.0795C230.878 38.0795 234.274 36.5889 236.114 33.3616C237.09 31.4041 237.566 29.2358 237.501 27.0496V11.0298C237.501 3.4865 233.043 0 226.575 0C220.107 0 215.649 3.4865 215.649 11.0298V27.0367C215.649 34.8133 219.9 38.0665 226.575 38.0665V38.0795ZM193.64 37.4962V19.4934L193.278 15.955V16.2661L197.697 27.3477H199.382L203.698 16.1105L203.854 15.5403L203.284 19.0786V37.4962H211.138V0.570288H203.945L198.358 14.9311L192.915 0.570288H185.786V37.4962H193.64ZM181.794 37.4962V29.6029H172.073V22.7207H180.64V15.0348H172.073V8.20432H181.664V0.622133H163.726V37.4962H181.794ZM141.472 37.4962V19.4934L141.109 15.955V16.2661L145.515 27.3477H147.213L151.517 16.1105L151.672 15.5403L151.115 19.0786V37.4962H158.891V0.570288H151.711L146.125 14.9311L140.681 0.570288H133.552V37.4962H141.472Z" fill="black"/>
</g>
<defs>
<clipPath id="clip0_110_288">
<rect width="287" height="123" fill="white"/>
</clipPath>
</defs>
</svg>
