<svg width="25" height="25" viewBox="0 0 25 25" fill="none" xmlns="http://www.w3.org/2000/svg">
<path d="M23.2037 0H1.79666C0.80439 0 0 0.804378 0 1.79663V23.2034C0 24.1956 0.80439 25 1.79666 25H23.2037C24.196 25 25.0004 24.1956 25.0004 23.2034V1.79663C25.0004 0.804378 24.196 0 23.2037 0Z" fill="#BFBFBF"/>
<path d="M4.90262 6.99157C4.18079 6.66491 3.58542 7.04426 3.58542 7.83456V17.0548C3.58507 17.2432 3.62189 17.4298 3.69375 17.604C3.76562 17.7782 3.87113 17.9365 4.00424 18.0698C4.13735 18.2032 4.29545 18.309 4.46949 18.3812C4.64354 18.4534 4.83011 18.4905 5.01853 18.4905H19.9634C20.3438 18.4898 20.7083 18.3382 20.977 18.0691C21.2456 17.7999 21.3965 17.4351 21.3965 17.0548V7.83456C21.3965 7.04426 20.8117 6.66754 20.0925 6.99684L13.8596 9.83403C13.0191 10.1607 12.0867 10.1607 11.2462 9.83403L4.90262 6.99157Z" fill="black"/>
</svg>
