<svg width="358" height="18" viewBox="0 0 358 18" fill="none" xmlns="http://www.w3.org/2000/svg">
<g clip-path="url(#clip0_402_1422)">
<path d="M0 13.4798V11.0179H4.02315V13.4193C4.02315 14.0852 4.18407 14.509 4.92836 14.509C5.67264 14.509 5.7531 14.0852 5.7531 13.4193V12.3296C5.7531 11.1996 4.60651 10.5538 3.33922 9.86771C2.81494 9.55731 2.31102 9.21357 1.83053 8.83857C1.25905 8.44747 0.797748 7.91515 0.491188 7.29302C0.184627 6.67089 0.0431664 5.97997 0.0804648 5.28699V4.37892C0.0804648 1.37219 1.77019 0 4.90824 0C8.0463 0 9.5751 1.41256 9.5751 4.03587V6.05381H5.77322V4.41928C5.77322 3.57175 5.59218 3.30942 4.94848 3.30942C4.30477 3.30942 4.12373 3.65246 4.12373 4.41928V5.00448C4.12373 5.97309 5.20998 6.47758 6.43704 7.16368C6.98231 7.46382 7.50654 7.80093 8.00607 8.17264C8.58844 8.58082 9.05936 9.1291 9.37566 9.76724C9.69197 10.4054 9.84354 11.113 9.81648 11.8251V13.6211C9.81648 16.5673 8.24746 18.0807 4.90824 18.0807C1.56903 18.0807 0 16.5067 0 13.4798Z" fill="white"/>
<path d="M16.8771 17.7175H12.854V3.91484H10.2389V0.302734H19.4117V3.91484H16.8771V17.7175Z" fill="white"/>
<path d="M20.1761 12.7937V5.22644C20.0851 4.52196 20.1558 3.80592 20.3828 3.13302C20.6098 2.46013 20.987 1.84818 21.4858 1.34393C21.9846 0.839667 22.5917 0.456438 23.2607 0.223515C23.9297 -0.00940788 24.6429 -0.0858635 25.3458 -1.41261e-05C26.0411 -0.0740629 26.744 0.00952522 27.4027 0.244576C28.0614 0.479628 28.659 0.860137 29.1514 1.35799C29.6438 1.85584 30.0185 2.45831 30.2476 3.12091C30.4768 3.7835 30.5546 4.48927 30.4754 5.18608V12.7533C30.506 13.7801 30.285 14.7987 29.8317 15.7197C29.3683 16.4798 28.7034 17.0956 27.9112 17.4983C27.119 17.901 26.2308 18.0747 25.3458 18C24.6432 18.0935 23.9285 18.023 23.2574 17.7941C22.5863 17.5652 21.9769 17.184 21.4766 16.6803C20.9764 16.1765 20.5988 15.5637 20.3732 14.8896C20.1476 14.2155 20.0802 13.4982 20.1761 12.7937ZM26.3315 12.4708V5.42823C26.3315 4.03586 26.0901 3.55155 25.3257 3.55155C24.5613 3.55155 24.2998 4.07622 24.2998 5.42823V12.4708C24.2998 13.8229 24.5412 14.3273 25.3257 14.3273C26.1102 14.3273 26.3315 13.8834 26.3315 12.4708Z" fill="white"/>
<path d="M35.6049 17.7175H31.8432V0.302734H36.7515C40.0102 0.302734 41.3982 1.4126 41.3982 4.58076V6.80049C41.3982 8.3543 40.8953 9.20184 39.8493 9.6256C40.9758 10.0292 41.2775 10.8767 41.2775 12.4305V16.4664C41.2576 16.6899 41.285 16.915 41.3578 17.1271C41.4306 17.3392 41.5472 17.5335 41.7 17.6974H37.6768C37.5403 17.5257 37.4397 17.3283 37.3809 17.1168C37.3222 16.9053 37.3065 16.6841 37.3348 16.4664V12.6525C37.3348 11.7041 37.0934 11.4417 36.1882 11.4417H35.6049V17.7175ZM35.6049 7.95071H36.49C37.3147 7.95071 37.5561 7.64802 37.5561 6.96193V4.72201C37.5561 3.91484 37.3147 3.61215 36.49 3.61215H35.6049V7.95071Z" fill="white"/>
<path d="M42.3638 13.9439H44.2144V4.03584H42.3638V0.282471H49.8669V4.03584H48.0565V13.9237H49.8669V17.6973H42.3638V13.9439Z" fill="white"/>
<path d="M51.1342 17.7175V0.302734H59.5426V3.87448H55.0367V7.12336H59.0598V10.7556H55.0367V14.0045H59.5426V17.7175H51.1342Z" fill="white"/>
<path d="M60.4679 13.4798V11.0179H64.4911V13.4193C64.4911 14.0852 64.652 14.509 65.3963 14.509C66.1406 14.509 66.221 14.0852 66.221 13.4193V12.3296C66.221 11.1996 65.0543 10.5538 63.8072 9.86771C63.2829 9.55731 62.779 9.21357 62.2985 8.83857C61.727 8.44747 61.2657 7.91515 60.9591 7.29302C60.6526 6.67089 60.5111 5.97997 60.5484 5.28699V4.37892C60.5484 1.37219 62.2381 0 65.3762 0C68.5142 0 70.043 1.41256 70.043 4.03587V6.05381H66.2412V4.41928C66.2412 3.57175 66.0601 3.30942 65.4164 3.30942C64.7727 3.30942 64.5917 3.65246 64.5917 4.41928V5.00448C64.5917 5.97309 65.6779 6.47758 66.905 7.16368C67.4503 7.46382 67.9745 7.80093 68.474 8.17264C69.0564 8.58082 69.5273 9.1291 69.8436 9.76724C70.1599 10.4054 70.3115 11.113 70.2844 11.8251V13.6211C70.2844 16.5673 68.7154 18.0807 65.3762 18.0807C62.037 18.0807 60.4679 16.5067 60.4679 13.4798Z" fill="white"/>
<path d="M75.8766 13.9439H77.6468V4.03584H75.7961V0.282471H83.2993V4.03584H81.6699V13.9237H83.4804V17.6973H75.8766V13.9439Z" fill="white"/>
<path d="M84.627 17.7175V0.302734H88.1673L91.245 8.81842L91.5065 9.78703V8.21304V0.302734H95.0871V17.7175H91.5267L88.3886 9.20184L88.107 8.21304V9.92829V17.7175H84.627Z" fill="white"/>
<path d="M100.981 13.9439H102.832V4.03584H100.981V0.282471H108.484V4.03584H106.674V13.9237H108.484V17.6973H100.981V13.9439Z" fill="white"/>
<path d="M109.832 17.7175V0.302734H113.191L115.746 7.083L118.381 0.302734H121.761V17.7175H117.878V9.0404L118.14 7.36551V7.62784L116.128 12.935H115.324L113.312 7.70856V7.56731L113.473 9.22201V17.7175H109.832Z" fill="white"/>
<path d="M126.548 15.8207L126.246 17.7175H122.223L125.925 0.302734H129.948L133.649 17.7175H129.626L129.304 15.8207H126.548ZM128.781 12.4911L128.077 8.29376L127.936 6.05385L127.755 8.23323L127.091 12.4305L128.781 12.4911Z" fill="white"/>
<path d="M137.37 18C134.916 18 133.83 16.4664 133.83 12.8341V5.18608C133.743 4.47708 133.82 3.75753 134.054 3.08299C134.289 2.40844 134.674 1.79696 135.182 1.29576C135.689 0.794558 136.305 0.417044 136.981 0.19237C137.657 -0.0323038 138.375 -0.0981247 139.08 -1.40503e-05C142.44 -1.40503e-05 144.19 1.47308 144.19 4.80268V6.82062H140.167V5.12555C140.167 3.89461 139.804 3.59191 139.121 3.59191C138.437 3.59191 137.994 4.03586 137.994 5.44842V12.4507C137.994 13.7623 138.296 14.3273 139.08 14.3273C139.865 14.3273 140.227 13.9238 140.227 12.4305V11.3206H138.799V8.07174H144.19V17.8184H141.011L140.609 15.2152C140.542 16.0132 140.165 16.7527 139.559 17.2738C138.953 17.795 138.167 18.0558 137.37 18Z" fill="white"/>
<path d="M145.698 17.7175V0.302734H154.087V3.87448H149.561V7.12336H153.584V10.7556H149.561V14.0045H154.147V17.7175H145.698Z" fill="white"/>
<path d="M155.052 13.4798V11.0179H159.075V13.4193C159.075 14.0852 159.256 14.509 160.001 14.509C160.745 14.509 160.825 14.0852 160.825 13.4193V12.3296C160.825 11.1996 159.659 10.5538 158.412 9.86771C157.878 9.5623 157.367 9.21835 156.883 8.83857C156.323 8.43715 155.872 7.9023 155.57 7.28226C155.268 6.66223 155.125 5.97651 155.153 5.28699V4.37892C155.153 1.37219 156.842 0 159.981 0C163.119 0 164.627 1.41256 164.627 4.03587V6.05381H160.765V4.41928C160.765 3.57175 160.604 3.30942 159.94 3.30942C159.277 3.30942 159.136 3.65246 159.136 4.41928V5.00448C159.136 5.97309 160.222 6.47758 161.449 7.16368C161.994 7.46382 162.519 7.80093 163.018 8.17264C163.598 8.5834 164.067 9.13219 164.383 9.76971C164.699 10.4072 164.852 11.1135 164.828 11.8251V13.6211C164.828 16.5673 163.259 18.0807 159.9 18.0807C156.541 18.0807 155.052 16.5067 155.052 13.4798Z" fill="white"/>
<path d="M167.001 17.7175C166.337 17.5157 166.116 16.8296 166.116 15.4776C166.101 14.9522 166.169 14.4278 166.317 13.9238C166.599 13.2175 167.202 13.0359 168.329 13.0359C168.778 13.0192 169.227 13.0806 169.656 13.2175C170.3 13.4395 170.541 14.065 170.541 15.4776C170.555 16.0028 170.487 16.527 170.34 17.0314C170.059 17.6973 169.455 17.9193 168.329 17.9193C167.878 17.9316 167.428 17.8632 167.001 17.7175Z" fill="white"/>
<path d="M176.576 13.9439H178.427V4.03584H176.576V0.282471H184.079V4.03584H182.249V13.9237H184.059V17.6973H176.556L176.576 13.9439Z" fill="#F1BB37"/>
<path d="M185.326 17.7175V0.302734H188.686L191.24 7.083L193.876 0.302734H197.255V17.7175H193.554V9.0404L193.835 7.36551V7.62784L191.824 12.935H191.039L189.028 7.70856V7.56731L189.209 9.22201V17.7175H185.326Z" fill="#F1BB37"/>
<path d="M202.163 15.8207L201.841 17.7175H197.818L201.459 0.302734H205.362L209.083 17.7175H205.06L204.758 15.8207H202.163ZM204.376 12.4911L203.672 8.29376L203.511 6.05385L203.35 8.23323L202.666 12.4305L204.376 12.4911Z" fill="#F1BB37"/>
<path d="M212.965 17.9999C210.511 17.9999 209.425 16.4663 209.425 12.834V5.18605C209.337 4.47512 209.414 3.7535 209.65 3.07722C209.885 2.40095 210.273 1.78821 210.783 1.28659C211.293 0.784961 211.911 0.407937 212.589 0.184798C213.268 -0.0383397 213.989 -0.10159 214.695 -4.929e-05C218.035 -4.929e-05 219.805 1.47305 219.805 4.80264V6.82058H215.782V5.12551C215.782 3.89457 215.42 3.59188 214.716 3.59188C214.011 3.59188 213.649 4.07618 213.649 5.46856V12.4708C213.649 13.7825 213.971 14.3475 214.736 14.3475C215.5 14.3475 215.902 13.9439 215.902 12.4506V11.3408H214.434V8.0717H219.845V17.8183H216.647L216.244 15.2152C216.211 15.614 216.1 16.0025 215.918 16.3583C215.735 16.7141 215.484 17.0303 215.18 17.2889C214.875 17.5475 214.523 17.7434 214.143 17.8654C213.763 17.9874 213.363 18.0331 212.965 17.9999Z" fill="#F1BB37"/>
<path d="M221.313 17.7175V0.302734H229.722V3.87448H225.216V7.12336H229.239V10.7556H225.216V14.0045H229.802V17.7175H221.313Z" fill="#F1BB37"/>
<path d="M230.647 13.4798V11.0179H234.67V13.4193C234.67 14.0852 234.831 14.509 235.576 14.509C236.32 14.509 236.4 14.0852 236.4 13.4193V12.3296C236.4 11.1996 235.234 10.5538 233.986 9.86771C233.456 9.55749 232.945 9.21375 232.458 8.83857C231.898 8.43715 231.447 7.9023 231.145 7.28226C230.843 6.66223 230.699 5.97651 230.728 5.28699V4.37892C230.728 1.37219 232.417 0 235.555 0C238.693 0 240.202 1.41256 240.202 4.03587V6.05381H236.36V4.41928C236.36 3.57175 236.179 3.30942 235.535 3.30942C234.892 3.30942 234.711 3.65246 234.711 4.41928V5.00448C234.711 5.97309 235.797 6.47758 237.024 7.16368C237.569 7.46382 238.093 7.80093 238.593 8.17264C239.175 8.58082 239.646 9.1291 239.962 9.76724C240.279 10.4054 240.43 11.113 240.403 11.8251V13.6211C240.403 16.5673 238.834 18.0807 235.475 18.0807C232.116 18.0807 230.647 16.5067 230.647 13.4798Z" fill="#F1BB37"/>
<path d="M250.18 17.7175H246.277V0.302734H254.323V4.03592H250.139V7.54713H253.861V11.24H250.139L250.18 17.7175Z" fill="#F1BB37"/>
<path d="M255.309 12.7937V5.22644C255.219 4.52384 255.289 3.80981 255.515 3.1386C255.741 2.4674 256.116 1.85667 256.613 1.35282C257.109 0.848979 257.714 0.465268 258.38 0.230851C259.046 -0.00356491 259.757 -0.0825204 260.459 -2.16752e-05C261.154 -0.0740705 261.857 0.00951767 262.516 0.244569C263.174 0.47962 263.772 0.860129 264.264 1.35798C264.757 1.85583 265.131 2.45831 265.36 3.1209C265.59 3.78349 265.667 4.48926 265.588 5.18608V12.7533C265.619 13.7801 265.398 14.7987 264.945 15.7197C264.476 16.4723 263.809 17.08 263.017 17.4754C262.225 17.8708 261.34 18.0384 260.459 17.9596C259.761 18.0484 259.053 17.9758 258.388 17.7476C257.723 17.5194 257.119 17.1415 256.622 16.6429C256.125 16.1443 255.748 15.5382 255.52 14.871C255.293 14.2038 255.221 13.4932 255.309 12.7937ZM261.465 12.4708V5.42823C261.465 4.03585 261.223 3.55154 260.459 3.55154C259.694 3.55154 259.433 4.07621 259.433 5.42823V12.4708C259.433 13.8228 259.674 14.3273 260.459 14.3273C261.243 14.3273 261.465 13.8834 261.465 12.4708Z" fill="#F1BB37"/>
<path d="M270.758 17.7175H266.996V0.302734H271.905C275.163 0.302734 276.551 1.4126 276.551 4.58076V6.80049C276.551 8.3543 276.048 9.20184 275.002 9.6256C276.129 10.0292 276.431 10.8767 276.431 12.4305V16.4664C276.411 16.6899 276.438 16.915 276.511 17.1271C276.584 17.3392 276.7 17.5335 276.853 17.6974H272.83C272.693 17.5257 272.593 17.3283 272.534 17.1168C272.475 16.9053 272.46 16.6841 272.488 16.4664V12.6525C272.488 11.7041 272.247 11.4417 271.341 11.4417H270.758V17.7175ZM270.758 7.95071H271.643C272.468 7.95071 272.709 7.64802 272.709 6.96193V4.72201C272.709 3.91484 272.468 3.61215 271.643 3.61215H270.758V7.95071Z" fill="#F1BB37"/>
<path d="M282.003 13.4798V11.0179H286.026V13.4193C286.026 14.0852 286.207 14.509 286.951 14.509C287.695 14.509 287.756 14.0852 287.756 13.4193V12.3296C287.756 11.1996 286.609 10.5538 285.362 9.86771C284.828 9.5623 284.317 9.21835 283.833 8.83857C283.274 8.43715 282.823 7.9023 282.52 7.28226C282.218 6.66223 282.075 5.97651 282.103 5.28699V4.37892C282.103 1.37219 283.793 0 286.931 0C290.069 0 291.578 1.41256 291.578 4.03587V6.05381H287.716V4.41928C287.716 3.57175 287.555 3.30942 286.891 3.30942C286.227 3.30942 286.086 3.65246 286.086 4.41928V5.00448C286.086 5.97309 287.172 6.47758 288.4 7.16368C288.942 7.46851 289.466 7.80543 289.969 8.17264C290.548 8.5834 291.017 9.13219 291.333 9.76971C291.649 10.4072 291.802 11.1135 291.779 11.8251V13.6211C291.779 16.5673 290.21 18.0807 286.851 18.0807C283.491 18.0807 282.003 16.5067 282.003 13.4798Z" fill="#F1BB37"/>
<path d="M298.92 17.7175H294.897V3.91484H292.302V0.302734H301.475V3.91484H298.92V17.7175Z" fill="#F1BB37"/>
<path d="M302.199 12.7937V5.22643C302.105 4.52493 302.172 3.81119 302.396 3.1398C302.619 2.46842 302.993 1.85717 303.488 1.35281C303.983 0.848447 304.586 0.464335 305.252 0.229858C305.917 -0.00461948 306.628 -0.0832534 307.328 -2.98124e-05C308.024 -0.0734731 308.728 0.0103631 309.387 0.245323C310.047 0.480283 310.646 0.860401 311.139 1.35778C311.633 1.85516 312.01 2.45718 312.242 3.11963C312.473 3.78209 312.554 4.48818 312.478 5.18607V12.7533C312.512 13.7827 312.283 14.8037 311.814 15.7197C311.347 16.4739 310.681 17.0829 309.888 17.4785C309.096 17.8741 308.21 18.0407 307.328 17.9596C306.633 18.045 305.927 17.97 305.264 17.7402C304.602 17.5105 304 17.1321 303.505 16.6339C303.011 16.1357 302.636 15.5308 302.41 14.8654C302.183 14.1999 302.111 13.4913 302.199 12.7937ZM308.334 12.4708V5.42822C308.334 4.03584 308.093 3.55154 307.328 3.55154C306.564 3.55154 306.323 4.0762 306.323 5.42822V12.4708C306.323 13.8228 306.564 14.3273 307.328 14.3273C308.093 14.3273 308.334 13.8834 308.334 12.4708Z" fill="#F1BB37"/>
<path d="M317.608 17.7175H313.846V0.302734H318.774C322.033 0.302734 323.401 1.4126 323.401 4.58076V6.80049C323.401 8.3543 322.898 9.20184 321.852 9.6256C322.999 10.0292 323.28 10.8767 323.28 12.4305V16.4664C323.259 16.6916 323.288 16.9188 323.364 17.1316C323.441 17.3444 323.563 17.5376 323.723 17.6974H319.7C319.563 17.5257 319.463 17.3283 319.404 17.1168C319.345 16.9053 319.329 16.6841 319.358 16.4664V12.6525C319.358 11.7041 319.116 11.4417 318.191 11.4417H317.608V17.7175ZM317.608 7.95071H318.513C319.338 7.95071 319.559 7.64802 319.559 6.96193V4.72201C319.559 3.91484 319.338 3.61215 318.513 3.61215H317.608V7.95071Z" fill="#F1BB37"/>
<path d="M324.366 13.9439H326.237V4.03584H324.366V0.282471H331.87V4.03584H330.059V13.9237H331.87V17.6973H324.366V13.9439Z" fill="#F1BB37"/>
<path d="M333.117 17.7175V0.302734H341.545V3.87448H337.14V7.12336H341.163V10.7556H337.14V14.0045H341.726V17.7175H333.117Z" fill="#F1BB37"/>
<path d="M342.471 13.4798V11.0179H346.494V13.4193C346.494 14.0852 346.655 14.509 347.419 14.509C348.184 14.509 348.224 14.0852 348.224 13.4193V12.3296C348.224 11.1996 347.077 10.5538 345.81 9.86771C345.286 9.55731 344.782 9.21357 344.301 8.83857C343.742 8.43715 343.29 7.9023 342.988 7.28226C342.686 6.66223 342.543 5.97651 342.571 5.28699V4.37892C342.571 1.37219 344.261 0 347.379 0C350.497 0 352.046 1.41256 352.046 4.03587V6.05381H348.184V4.41928C348.184 3.57175 348.023 3.30942 347.359 3.30942C346.695 3.30942 346.554 3.65246 346.554 4.41928V5.00448C346.554 5.97309 347.64 6.47758 348.867 7.16368C349.41 7.46851 349.934 7.80543 350.436 8.17264C351.016 8.5834 351.485 9.13219 351.801 9.76971C352.117 10.4072 352.27 11.1135 352.247 11.8251V13.6211C352.247 16.5673 350.678 18.0807 347.319 18.0807C343.959 18.0807 342.471 16.5067 342.471 13.4798Z" fill="#F1BB37"/>
<path d="M354.419 17.7174C353.776 17.5156 353.554 16.8295 353.554 15.4775C353.539 14.9522 353.607 14.4278 353.756 13.9237C354.037 13.2174 354.641 13.0358 355.767 13.0358C356.217 13.0157 356.667 13.0772 357.095 13.2174C357.759 13.4394 358 14.065 358 15.4775C358.013 16.0028 357.946 16.5269 357.799 17.0313C357.517 17.6973 356.914 17.9192 355.787 17.9192C355.323 17.9317 354.86 17.8634 354.419 17.7174Z" fill="#F1BB37"/>
</g>
<defs>
<clipPath id="clip0_402_1422">
<rect width="358" height="18" fill="white"/>
</clipPath>
</defs>
</svg>
