<svg width="25" height="25" viewBox="0 0 25 25" fill="none" xmlns="http://www.w3.org/2000/svg">
<path d="M1.79666 0.5H23.2037C23.9199 0.5 24.5004 1.08053 24.5004 1.79663V23.2034C24.5004 23.9195 23.9198 24.5 23.2037 24.5H1.79666C1.08053 24.5 0.5 23.9195 0.5 23.2034V1.79663C0.5 1.08053 1.08053 0.5 1.79666 0.5Z" fill="white" stroke="#999999"/>
<path d="M4.90262 6.99157C4.18079 6.66491 3.58542 7.04426 3.58542 7.83456V17.0548C3.58507 17.2432 3.62189 17.4298 3.69375 17.604C3.76562 17.7782 3.87113 17.9365 4.00424 18.0698C4.13735 18.2032 4.29545 18.309 4.46949 18.3812C4.64354 18.4534 4.83011 18.4905 5.01853 18.4905H19.9634C20.3438 18.4898 20.7083 18.3382 20.977 18.0691C21.2456 17.7999 21.3965 17.4351 21.3965 17.0548V7.83456C21.3965 7.04426 20.8117 6.66754 20.0925 6.99684L13.8596 9.83403C13.0191 10.1607 12.0867 10.1607 11.2462 9.83403L4.90262 6.99157Z" fill="black"/>
</svg>
