<?xml version="1.0" standalone="no"?>
<!DOCTYPE svg PUBLIC "-//W3C//DTD SVG 20010904//EN"
 "http://www.w3.org/TR/2001/REC-SVG-20010904/DTD/svg10.dtd">
<svg version="1.0" xmlns="http://www.w3.org/2000/svg"
 width="700.000000pt" height="700.000000pt" viewBox="0 0 700.000000 700.000000"
 preserveAspectRatio="xMidYMid meet">
<metadata>
Created by potrace 1.14, written by Peter Selinger 2001-2017
</metadata>
<g transform="translate(0.000000,700.000000) scale(0.100000,-0.100000)"
fill="#000000" stroke="none">
<path d="M385 6985 c-150 -42 -264 -132 -329 -261 -59 -117 -55 114 -53 -3239
1 -1694 5 -3089 9 -3100 62 -193 182 -314 367 -369 49 -14 334 -16 3116 -16
3355 0 3109 -4 3235 58 72 36 177 141 212 214 63 128 58 -122 55 3248 -1 1691
-5 3084 -9 3095 -62 194 -185 318 -367 369 -48 14 -390 16 -3120 15 -2562 -1
-3074 -3 -3116 -14z m945 -1927 c19 -6 64 -24 100 -41 36 -16 151 -68 255
-114 105 -47 298 -134 430 -193 132 -59 346 -155 475 -213 129 -58 264 -118
300 -135 229 -104 331 -145 390 -156 14 -3 48 -9 75 -15 50 -10 280 -8 345 3
43 8 201 56 215 66 6 4 102 49 215 100 113 50 237 107 275 125 39 18 93 43
120 55 28 12 75 34 105 47 30 14 107 49 170 78 163 74 207 94 275 125 467 213
605 273 644 279 130 19 235 -51 261 -176 7 -32 10 -515 8 -1408 l-3 -1360 -31
-66 c-53 -111 -164 -201 -281 -227 -22 -5 -973 -9 -2199 -8 l-2160 1 -75 37
c-40 20 -93 56 -116 79 -46 44 -97 139 -111 204 -9 44 -8 2716 1 2752 8 30 25
62 54 101 53 71 153 94 263 60z"/>
</g>
</svg>
